<svg fill="none" height="48" viewBox="0 0 186 48" width="186" xmlns="http://www.w3.org/2000/svg" xmlns:xlink="http://www.w3.org/1999/xlink"><filter id="a" color-interpolation-filters="sRGB" filterUnits="userSpaceOnUse" height="54" width="48" x="0" y="-3"><feFlood flood-opacity="0" result="BackgroundImageFix"/><feBlend in="SourceGraphic" in2="BackgroundImageFix" mode="normal" result="shape"/><feColorMatrix in="SourceAlpha" result="hardAlpha" type="matrix" values="0 0 0 0 0 0 0 0 0 0 0 0 0 0 0 0 0 0 127 0"/><feOffset dy="-3"/><feGaussianBlur stdDeviation="1.5"/><feComposite in2="hardAlpha" k2="-1" k3="1" operator="arithmetic"/><feColorMatrix type="matrix" values="0 0 0 0 0 0 0 0 0 0 0 0 0 0 0 0 0 0 0.1 0"/><feBlend in2="shape" mode="normal" result="effect1_innerShadow_3046_38766"/><feColorMatrix in="SourceAlpha" result="hardAlpha" type="matrix" values="0 0 0 0 0 0 0 0 0 0 0 0 0 0 0 0 0 0 127 0"/><feOffset dy="3"/><feGaussianBlur stdDeviation="1.5"/><feComposite in2="hardAlpha" k2="-1" k3="1" operator="arithmetic"/><feColorMatrix type="matrix" values="0 0 0 0 1 0 0 0 0 1 0 0 0 0 1 0 0 0 0.1 0"/><feBlend in2="effect1_innerShadow_3046_38766" mode="normal" result="effect2_innerShadow_3046_38766"/><feColorMatrix in="SourceAlpha" result="hardAlpha" type="matrix" values="0 0 0 0 0 0 0 0 0 0 0 0 0 0 0 0 0 0 127 0"/><feMorphology in="SourceAlpha" operator="erode" radius="1" result="effect3_innerShadow_3046_38766"/><feOffset/><feComposite in2="hardAlpha" k2="-1" k3="1" operator="arithmetic"/><feColorMatrix type="matrix" values="0 0 0 0 0.0627451 0 0 0 0 0.0941176 0 0 0 0 0.156863 0 0 0 0.24 0"/><feBlend in2="effect2_innerShadow_3046_38766" mode="normal" result="effect3_innerShadow_3046_38766"/></filter><filter id="b" color-interpolation-filters="sRGB" filterUnits="userSpaceOnUse" height="42" width="36.0039" x="6" y="5.25"><feFlood flood-opacity="0" result="BackgroundImageFix"/><feColorMatrix in="SourceAlpha" result="hardAlpha" type="matrix" values="0 0 0 0 0 0 0 0 0 0 0 0 0 0 0 0 0 0 127 0"/><feMorphology in="SourceAlpha" operator="erode" radius="1.5" result="effect1_dropShadow_3046_38766"/><feOffset dy="2.25"/><feGaussianBlur stdDeviation="2.25"/><feComposite in2="hardAlpha" operator="out"/><feColorMatrix type="matrix" values="0 0 0 0 0.141176 0 0 0 0 0.141176 0 0 0 0 0.141176 0 0 0 0.1 0"/><feBlend in2="BackgroundImageFix" mode="normal" result="effect1_dropShadow_3046_38766"/><feBlend in="SourceGraphic" in2="effect1_dropShadow_3046_38766" mode="normal" result="shape"/></filter><linearGradient id="c" gradientUnits="userSpaceOnUse" x1="24" x2="26" y1=".000001" y2="48"><stop offset="0" stop-color="#fff" stop-opacity="0"/><stop offset="1" stop-color="#fff" stop-opacity=".12"/></linearGradient><linearGradient id="d"><stop offset="0" stop-color="#fff" stop-opacity=".8"/><stop offset="1" stop-color="#fff" stop-opacity=".5"/></linearGradient><linearGradient id="e" gradientUnits="userSpaceOnUse" x1="25.9263" x2="25.9263" xlink:href="#d" y1="30.6746" y2="37.3487"/><linearGradient id="f" gradientUnits="userSpaceOnUse" x1="22.0747" x2="22.0747" xlink:href="#d" y1="10.652" y2="17.3261"/><linearGradient id="g" gradientUnits="userSpaceOnUse" x1="27.6502" x2="27.6502" xlink:href="#d" y1="17.326" y2="30.6743"/><linearGradient id="h" gradientUnits="userSpaceOnUse" x1="16.2947" x2="16.2947" xlink:href="#d" y1="24.0002" y2="37.3485"/><linearGradient id="i" gradientUnits="userSpaceOnUse" x1="20.3578" x2="20.3578" xlink:href="#d" y1="17.326" y2="30.6743"/><linearGradient id="j" gradientUnits="userSpaceOnUse" x1="31.7107" x2="31.7107" xlink:href="#d" y1="10.652" y2="24.0003"/><linearGradient id="k" gradientUnits="userSpaceOnUse" x1="24" x2="24" y1="0" y2="48"><stop offset="0" stop-color="#fff" stop-opacity=".12"/><stop offset="1" stop-color="#fff" stop-opacity="0"/></linearGradient><clipPath id="l"><rect height="48" rx="12" width="48"/></clipPath><g filter="url(#a)"><g clip-path="url(#l)"><rect fill="#6938ef" height="48" rx="12" width="48"/><path d="m0 0h48v48h-48z" fill="url(#c)"/><g filter="url(#b)"><path d="m16.293 37.3487h13.8719c.9538 0 1.8351-.5088 2.312-1.3348l3.0827-5.3393h-15.4111z" fill="url(#e)" opacity=".7"/><path d="m27.8589 17.3261h-15.4175l3.0827-5.3393c.4769-.826 1.3582-1.3348 2.312-1.3348h13.8719z" fill="url(#f)" opacity=".4"/><path d="m38.6459 25.335c.4769-.826.4769-1.8436 0-2.6696l-3.0827-5.3394-3.8533 6.6742h-15.413l3.8529 6.6741h15.4111l.0011-.002.0012.002z" fill="url(#g)" opacity=".4"/><path d="m20.148 30.6744-3.8533-6.6742-3.8533 6.6742 3.8533 6.6741z" fill="url(#h)"/><path d="m27.8594 17.326h-15.417l-3.08112 5.3394c-.47664.826-.47649 1.8435.00039 2.6693l3.08333 5.3396 3.8533-6.6741h15.4125l.001-.0016z" fill="url(#i)" opacity=".7"/><path d="m35.5641 17.3261-3.8534-6.6741-3.8533 6.6741 3.8533 6.6742z" fill="url(#j)"/></g></g><rect height="46" rx="11" stroke="url(#k)" stroke-width="2" width="46" x="1" y="1"/></g><g fill="#0A0D12"><path d="m60 32.9999v-20.412h4.368v8.204h9.604v-8.204h4.368v20.412h-4.368v-8.484h-9.604v8.484z"/><path d="m88.2947 33.2519c-1.568 0-2.912-.3173-4.032-.952-1.1014-.6347-1.9507-1.5213-2.548-2.66-.5974-1.1573-.896-2.5013-.896-4.032 0-1.624.2986-3.024.896-4.2.616-1.176 1.4746-2.0813 2.576-2.716 1.1013-.6533 2.3893-.98 3.864-.98 1.736 0 3.164.3827 4.284 1.148 1.12.7467 1.9226 1.7827 2.408 3.108.4853 1.3067.644 2.7907.476 4.452h-10.444c-.0187 1.1947.2893 2.1187.924 2.772.6346.6347 1.4653.952 2.492.952.784 0 1.4466-.168 1.988-.504.56-.3547.9146-.8213 1.064-1.4h3.892c-.1307 1.008-.5134 1.8853-1.148 2.632-.616.7467-1.4187 1.3347-2.408 1.764-.9894.4107-2.1187.616-3.388.616zm-.14-12.432c-.9334 0-1.6894.2707-2.268.812-.5787.5227-.9054 1.2413-.98 2.156h6.384c-.056-1.008-.3827-1.7547-.98-2.24-.5787-.4853-1.2974-.728-2.156-.728z"/><path d="m94.6732 32.9999 5.6278-7.7-5.1238-7.308h4.8998l2.996 4.508h.168l2.968-4.508h4.676l-4.984 7.196 5.516 7.812h-4.844l-3.472-5.096h-.168l-3.6398 5.096z"/><path d="m118.169 33.2799c-2.184 0-3.873-.4573-5.068-1.372-1.176-.9333-1.754-2.1467-1.736-3.64h4.032c.019.8027.299 1.3813.84 1.736.56.336 1.242.504 2.044.504.84 0 1.475-.14 1.904-.42.43-.2987.644-.7.644-1.204 0-.6907-.252-1.1387-.756-1.344-.485-.2053-1.26-.3827-2.324-.532-1.101-.1493-2.109-.364-3.024-.644-.914-.2987-1.642-.7467-2.184-1.344-.522-.5973-.784-1.4467-.784-2.548 0-1.5867.598-2.772 1.792-3.556 1.214-.8027 2.8-1.204 4.76-1.204 1.923 0 3.454.42 4.592 1.26 1.139.8213 1.727 1.9787 1.764 3.472h-4.032c0-.6347-.224-1.12-.672-1.456-.429-.336-1.017-.504-1.764-.504-.765 0-1.344.1493-1.736.448-.392.28-.588.6533-.588 1.12 0 .56.252.952.756 1.176s1.307.4107 2.408.56c.784.112 1.531.252 2.24.42.71.1493 1.335.392 1.876.728.56.3173.999.7653 1.316 1.344.336.56.504 1.2973.504 2.212 0 1.6427-.606 2.856-1.82 3.64-1.213.7653-2.874 1.148-4.984 1.148z"/><path d="m127.175 32.9999v-15.008h3.976l.14 2.716h.168c.374-.9893.98-1.736 1.82-2.24s1.764-.756 2.772-.756c1.046 0 1.998.252 2.856.756.859.504 1.494 1.372 1.904 2.604h.224c.355-1.12.98-1.96 1.876-2.52.915-.56 1.942-.84 3.08-.84.971 0 1.839.2053 2.604.616.766.4107 1.372 1.0733 1.82 1.988.467.896.7 2.1.7 3.612v9.072h-4.116v-8.176c0-1.2693-.214-2.212-.644-2.828-.41-.616-1.082-.924-2.016-.924-.989 0-1.764.364-2.324 1.092-.541.7093-.812 1.54-.812 2.492v8.344h-4.116v-8.176c0-1.2693-.214-2.212-.644-2.828-.41-.616-1.082-.924-2.016-.924-1.008 0-1.782.364-2.324 1.092-.541.7093-.812 1.54-.812 2.492v8.344z"/><path d="m153.932 16.0599v-3.0499l4.116-.4221v3.472zm0 16.94v-15.008h4.116v15.008z"/><path d="m165.984 32.9999c-1.008 0-1.792-.1493-2.352-.448s-.952-.7187-1.176-1.26c-.205-.56-.308-1.2133-.308-1.96v-8.036h-2.688v-3.304h2.688v-4.088l4.088-.392v4.48h3.024v3.304h-3.024v7.252c0 .448.103.7467.308.896s.504.224.896.224h1.82v3.332z"/><path d="m171.241 32.9999v-20.412h4.116v8.12h.168c.411-.9893 1.046-1.736 1.904-2.24.859-.504 1.82-.756 2.884-.756 1.008 0 1.904.2053 2.688.616.803.4107 1.438 1.0733 1.904 1.988.467.896.7 2.1.7 3.612v9.072h-4.116v-8.176c0-1.2693-.224-2.212-.672-2.828s-1.166-.924-2.156-.924c-1.064 0-1.885.364-2.464 1.092-.56.7093-.84 1.54-.84 2.492v8.344z"/></g></svg>